<svg width="134" height="125" viewBox="0 0 134 125" fill="none" xmlns="http://www.w3.org/2000/svg">
<path d="M83.8186 15.0792H83.5112C76.075 15.0792 68.6885 13.0934 62.232 9.40397C61.7996 9.1569 61.2613 9.16234 60.8371 9.42333C54.828 13.1212 47.9107 15.0792 40.8549 15.0792H35.6887L30.1357 37.0732C27.6129 47.0654 31.1093 57.6142 39.1007 64.1216C39.211 64.2114 39.3726 64.1981 39.4668 64.0916L58.1055 43.0053L54.496 39.3958L68.5541 36.3562L64.7546 49.6544L61.5251 45.4749L47.467 61.2427C44.4835 64.2263 44.6409 69.1098 47.8103 71.8951L48.2269 72.2612L61.387 80.9093C61.4714 80.9648 61.5802 80.9671 61.6669 80.9154L69.0416 76.5148C90.2841 63.8392 97.0237 36.2192 84.0069 15.1841C83.9665 15.1188 83.8953 15.0792 83.8186 15.0792Z" stroke="#301466" stroke-width="3"/>
<path d="M30.4609 101.297V103.289H25.0469V116.93H22.9375V103.289H17.5234V101.297H30.4609ZM35.0547 105.281V107.625C35.5078 106.844 36.0547 106.219 36.6953 105.75C37.3359 105.281 37.9922 105.047 38.6641 105.047C39.1172 105.047 39.5234 105.125 39.8828 105.281V107.508C39.3828 107.211 38.8828 107.062 38.3828 107.062C37.5859 107.062 36.9375 107.344 36.4375 107.906C35.9531 108.469 35.4922 109.141 35.0547 109.922V117H33.1328V105.281H35.0547ZM51.9297 105.281V112.219C51.9297 113.25 51.7109 114.141 51.2734 114.891C50.8359 115.641 50.2422 116.219 49.4922 116.625C48.7422 117.031 47.8984 117.234 46.9609 117.234C46.0234 117.234 45.1797 117.031 44.4297 116.625C43.6797 116.219 43.0859 115.641 42.6484 114.891C42.2109 114.141 41.9922 113.25 41.9922 112.219V105.281H43.9844V112.219C43.9844 113.234 44.2812 114.016 44.875 114.562C45.4844 115.094 46.1797 115.359 46.9609 115.359C47.7422 115.359 48.4297 115.094 49.0234 114.562C49.6328 114.016 49.9375 113.234 49.9375 112.219V105.281H51.9297ZM59.0547 105.047C59.7422 105.047 60.3828 105.148 60.9766 105.352C61.5703 105.539 62 105.734 62.2656 105.938V108C61.9375 107.75 61.4922 107.508 60.9297 107.273C60.3672 107.039 59.7891 106.922 59.1953 106.922C58.4609 106.922 57.9062 107.094 57.5312 107.438C57.1719 107.781 56.9922 108.141 56.9922 108.516C56.9922 108.812 57.0938 109.117 57.2969 109.43C57.5156 109.727 57.8906 109.969 58.4219 110.156L60.3906 110.859C61.1562 111.125 61.7266 111.508 62.1016 112.008C62.4766 112.508 62.6641 113.094 62.6641 113.766C62.6641 114.422 62.4766 115.023 62.1016 115.57C61.7422 116.117 61.2344 116.555 60.5781 116.883C59.9375 117.195 59.1953 117.352 58.3516 117.352C57.8984 117.352 57.4219 117.289 56.9219 117.164C56.4375 117.055 56 116.922 55.6094 116.766C55.2188 116.594 54.9297 116.445 54.7422 116.32V114.258C54.9609 114.414 55.2656 114.594 55.6562 114.797C56.0625 114.984 56.4922 115.148 56.9453 115.289C57.3984 115.414 57.8203 115.477 58.2109 115.477C58.9453 115.477 59.5234 115.312 59.9453 114.984C60.3828 114.656 60.6016 114.25 60.6016 113.766C60.6016 113.391 60.4531 113.094 60.1562 112.875C59.875 112.656 59.4609 112.445 58.9141 112.242L57.1797 111.609C56.2734 111.266 55.6719 110.836 55.375 110.32C55.0781 109.789 54.9297 109.188 54.9297 108.516C54.9297 107.516 55.3047 106.688 56.0547 106.031C56.8047 105.375 57.8047 105.047 59.0547 105.047ZM68.8281 101.906V105.281H72.25V107.086H68.8281V113.953C68.8281 114.438 68.9531 114.82 69.2031 115.102C69.4531 115.383 69.8359 115.523 70.3516 115.523C70.8203 115.523 71.2109 115.469 71.5234 115.359C71.8359 115.234 72.1094 115.102 72.3438 114.961V116.531C72.0312 116.781 71.6953 116.977 71.3359 117.117C70.9922 117.273 70.5234 117.352 69.9297 117.352C68.9297 117.352 68.1719 117.055 67.6562 116.461C67.1562 115.852 66.9062 115.047 66.9062 114.047V107.086H64.6562V106.523C65.4219 106.18 66.0625 105.617 66.5781 104.836C67.0938 104.039 67.5469 103.062 67.9375 101.906H68.8281ZM82.5859 101.297C83.4922 101.297 84.3594 101.508 85.1875 101.93C86.0156 102.336 86.6953 102.93 87.2266 103.711C87.7734 104.477 88.0469 105.398 88.0469 106.477C88.0469 107.398 87.7891 108.25 87.2734 109.031C86.7578 109.812 86.0547 110.445 85.1641 110.93C84.2891 111.398 83.3125 111.633 82.2344 111.633C81.4375 111.633 80.7031 111.555 80.0312 111.398C79.375 111.227 78.8438 111.047 78.4375 110.859V117H76.3281V101.297H82.5859ZM78.4375 103.289V108.938C78.8594 109.109 79.4062 109.273 80.0781 109.43C80.7656 109.57 81.4609 109.641 82.1641 109.641C83.3516 109.641 84.2656 109.336 84.9062 108.727C85.5625 108.102 85.8906 107.352 85.8906 106.477C85.8906 105.805 85.7031 105.234 85.3281 104.766C84.9688 104.297 84.4922 103.938 83.8984 103.688C83.3047 103.422 82.6719 103.289 82 103.289H78.4375ZM96.0391 105.047C96.7109 105.047 97.3906 105.211 98.0781 105.539C98.7812 105.852 99.3828 106.289 99.8828 106.852V105.281H101.805V117H99.8828V115.008C99.4766 115.633 98.9219 116.18 98.2188 116.648C97.5312 117.117 96.7422 117.352 95.8516 117.352C94.8516 117.352 93.9375 117.102 93.1094 116.602C92.2812 116.086 91.6172 115.375 91.1172 114.469C90.6328 113.562 90.3906 112.516 90.3906 111.328C90.3906 110.031 90.6328 108.914 91.1172 107.977C91.6172 107.039 92.2969 106.32 93.1562 105.82C94.0156 105.305 94.9766 105.047 96.0391 105.047ZM96.3906 106.922C95.5469 106.922 94.8281 107.133 94.2344 107.555C93.6406 107.977 93.1797 108.523 92.8516 109.195C92.5391 109.852 92.3828 110.562 92.3828 111.328C92.3828 112.078 92.5391 112.773 92.8516 113.414C93.1641 114.039 93.6016 114.539 94.1641 114.914C94.7422 115.289 95.4062 115.477 96.1562 115.477C96.875 115.477 97.5156 115.289 98.0781 114.914C98.6406 114.539 99.0859 114.023 99.4141 113.367C99.7422 112.695 99.8984 111.945 99.8828 111.117L99.8594 108.867C99.375 108.258 98.8516 107.781 98.2891 107.438C97.7422 107.094 97.1094 106.922 96.3906 106.922ZM106.445 105.281L110.547 113.906L114.531 105.281H116.828L108.203 122.625H105.977L109.328 116.297L104.148 105.281H106.445Z" fill="#301466"/>
</svg>
