<svg width="134" height="141" viewBox="0 0 134 141" fill="none" xmlns="http://www.w3.org/2000/svg">
<path d="M86.2429 19.7546H85.9014C77.6389 19.7546 69.4316 17.5482 62.2578 13.4489C61.7774 13.1743 61.1792 13.1804 60.7079 13.4704C54.0312 17.5792 46.3452 19.7546 38.5054 19.7546H32.7652L26.5952 44.1924C23.7921 55.2949 27.6769 67.0158 36.5564 74.2462C36.6789 74.346 36.8584 74.3313 36.9631 74.2128L57.6728 50.7836L53.6623 46.7731L69.2823 43.3958L65.0607 58.1715L61.4723 53.5277L45.8522 71.0475C42.5372 74.3625 42.7121 79.7887 46.2336 82.8834L46.6966 83.2902L61.3189 92.8992C61.4127 92.9608 61.5335 92.9635 61.6299 92.9059L69.824 88.0165C93.4268 73.9325 100.915 43.2436 86.4521 19.8712C86.4072 19.7987 86.3281 19.7546 86.2429 19.7546Z" fill="#240F43" stroke="white" stroke-width="3"/>
<path d="M22.7266 133V117.297H24.8359V133H22.7266ZM17.3125 119.289V117.297H30.25V119.289H17.3125ZM32.9219 133V121.281H34.8438V133H32.9219ZM34.8438 125.922V123.625C35.2969 122.844 35.8438 122.219 36.4844 121.75C37.125 121.281 37.7812 121.047 38.4531 121.047C38.9062 121.047 39.3125 121.125 39.6719 121.281V123.508C39.4375 123.367 39.1953 123.258 38.9453 123.18C38.6953 123.102 38.4375 123.062 38.1719 123.062C37.375 123.062 36.7266 123.344 36.2266 123.906C35.7422 124.469 35.2812 125.141 34.8438 125.922ZM46.75 133.234C45.8125 133.234 44.9688 133.031 44.2188 132.625C43.4688 132.219 42.875 131.641 42.4375 130.891C42 130.141 41.7812 129.25 41.7812 128.219V121.281H43.7734V128.219C43.7734 129.234 44.0703 130.016 44.6641 130.562C45.2734 131.094 45.9688 131.359 46.75 131.359C47.5312 131.359 48.2188 131.094 48.8125 130.562C49.4219 130.016 49.7266 129.234 49.7266 128.219V121.281H51.7188V128.219C51.7188 129.25 51.5 130.141 51.0625 130.891C50.625 131.641 50.0312 132.219 49.2812 132.625C48.5312 133.031 47.6875 133.234 46.75 133.234ZM58.1406 133.352C57.6875 133.352 57.2109 133.289 56.7109 133.164C56.2266 133.055 55.7891 132.922 55.3984 132.766C55.0078 132.594 54.7188 132.445 54.5312 132.32V130.258C54.75 130.414 55.0547 130.594 55.4453 130.797C55.8516 130.984 56.2812 131.148 56.7344 131.289C57.1875 131.414 57.6094 131.477 58 131.477C58.7344 131.477 59.3125 131.312 59.7344 130.984C60.1719 130.656 60.3906 130.25 60.3906 129.766C60.3906 129.391 60.2422 129.094 59.9453 128.875C59.6641 128.656 59.25 128.445 58.7031 128.242L56.9688 127.609C56.0625 127.266 55.4609 126.836 55.1641 126.32C54.8672 125.789 54.7188 125.188 54.7188 124.516C54.7188 123.844 54.8828 123.25 55.2109 122.734C55.5547 122.219 56.0391 121.812 56.6641 121.516C57.2891 121.203 58.0156 121.047 58.8438 121.047C59.5312 121.047 60.1719 121.148 60.7656 121.352C61.3594 121.539 61.7891 121.734 62.0547 121.938V124C61.7266 123.75 61.2812 123.508 60.7188 123.273C60.1562 123.039 59.5781 122.922 58.9844 122.922C58.25 122.922 57.6953 123.094 57.3203 123.438C56.9609 123.781 56.7812 124.141 56.7812 124.516C56.7812 124.812 56.8828 125.117 57.0859 125.43C57.3047 125.727 57.6797 125.969 58.2109 126.156L60.1797 126.859C60.9453 127.125 61.5156 127.508 61.8906 128.008C62.2656 128.508 62.4531 129.094 62.4531 129.766C62.4531 130.422 62.2656 131.023 61.8906 131.57C61.5312 132.117 61.0234 132.555 60.3672 132.883C59.7266 133.195 58.9844 133.352 58.1406 133.352ZM69.9297 133.352C69.2734 133.352 68.7031 133.219 68.2188 132.953C67.7344 132.672 67.3594 132.281 67.0938 131.781C66.8281 131.281 66.6953 130.703 66.6953 130.047V123.086H64.4453V122.523C65.2109 122.18 65.8516 121.617 66.3672 120.836C66.8828 120.039 67.3359 119.062 67.7266 117.906H68.6172V121.281H72.3906V123.086H68.6172V129.953C68.6172 130.438 68.7734 130.82 69.0859 131.102C69.4141 131.383 69.8359 131.523 70.3516 131.523C70.8203 131.523 71.2422 131.469 71.6172 131.359C72.0078 131.234 72.3203 131.102 72.5547 130.961V132.648C72.2422 132.898 71.875 133.078 71.4531 133.188C71.0312 133.297 70.5234 133.352 69.9297 133.352ZM76.5391 133V117.297H82.7969C83.4688 117.297 84.125 117.43 84.7656 117.695C85.4219 117.945 86.0078 118.312 86.5234 118.797C87.0547 119.266 87.4766 119.836 87.7891 120.508C88.1016 121.164 88.2578 121.898 88.2578 122.711C88.2578 123.789 88 124.734 87.4844 125.547C86.9688 126.344 86.2656 126.969 85.375 127.422C84.5 127.875 83.5234 128.102 82.4453 128.102C81.5391 128.102 80.7266 128 80.0078 127.797C79.3047 127.594 78.7578 127.391 78.3672 127.188V125.266C78.7422 125.469 79.3047 125.672 80.0547 125.875C80.8047 126.062 81.5781 126.156 82.375 126.156C83.5625 126.156 84.4766 125.859 85.1172 125.266C85.7734 124.672 86.1016 123.82 86.1016 122.711C86.1016 122.039 85.9141 121.453 85.5391 120.953C85.1797 120.438 84.7031 120.031 84.1094 119.734C83.5156 119.438 82.8828 119.289 82.2109 119.289H78.6484V133H76.5391ZM96.0625 133.352C95.0625 133.352 94.1484 133.102 93.3203 132.602C92.4922 132.086 91.8281 131.375 91.3281 130.469C90.8438 129.562 90.6016 128.516 90.6016 127.328C90.6016 126.031 90.8438 124.914 91.3281 123.977C91.8281 123.039 92.5078 122.32 93.3672 121.82C94.2266 121.305 95.1875 121.047 96.25 121.047C96.9219 121.047 97.6016 121.211 98.2891 121.539C98.9922 121.852 99.5938 122.289 100.094 122.852V121.281H102.016V133H100.094V131.008C99.6875 131.633 99.1328 132.18 98.4297 132.648C97.7422 133.117 96.9531 133.352 96.0625 133.352ZM96.3672 131.477C97.0859 131.477 97.7266 131.289 98.2891 130.914C98.8516 130.539 99.2969 130.023 99.625 129.367C99.9531 128.695 100.109 127.945 100.094 127.117L100.07 124.867C99.5859 124.258 99.0625 123.781 98.5 123.438C97.9531 123.094 97.3203 122.922 96.6016 122.922C95.7578 122.922 95.0391 123.133 94.4453 123.555C93.8516 123.977 93.3906 124.523 93.0625 125.195C92.75 125.852 92.5938 126.562 92.5938 127.328C92.5938 128.078 92.75 128.773 93.0625 129.414C93.375 130.039 93.8125 130.539 94.375 130.914C94.9531 131.289 95.6172 131.477 96.3672 131.477ZM106.188 138.625L110.383 130.727L114.742 121.281H117.039L108.414 138.625H106.188ZM109.609 132.438L104.359 121.281H106.656L111.297 131.031L109.609 132.438Z" fill="white"/>
</svg>
